<?xml version="1.0" encoding="UTF-8"?>
<svg version="1.1" xmlns="http://www.w3.org/2000/svg" width="1000" height="369">
<path d="M0 0 C1.40074008 -0.00599847 2.80147689 -0.012807 4.20220947 -0.02035522 C7.97251991 -0.03787372 11.74273935 -0.04270414 15.51308656 -0.0439868 C17.87257646 -0.04541534 20.2320437 -0.04969782 22.59152794 -0.05498123 C30.83300607 -0.07342411 39.07441988 -0.08165777 47.31591797 -0.08007812 C54.98521572 -0.07887348 62.65423355 -0.10005357 70.3234604 -0.13156545 C76.92585785 -0.15772285 83.52816369 -0.16844588 90.13061255 -0.16716731 C94.06661001 -0.16665816 98.00235742 -0.17231712 101.93830299 -0.19352341 C105.6345783 -0.21290078 109.33036444 -0.21303424 113.0266571 -0.19849014 C115.02452467 -0.19540727 117.02239229 -0.21207581 119.02018738 -0.22937012 C129.87354369 -0.15321552 129.87354369 -0.15321552 134.71948242 4.29052734 C135.15260742 3.81615234 135.58573242 3.34177734 136.03198242 2.85302734 C139.24422426 -0.12127066 142.58329992 0.15537785 146.74804688 0.12939453 C147.98976151 0.11978699 149.23147614 0.11017944 150.51081848 0.10028076 C151.86813167 0.09543228 153.225447 0.09115357 154.58276367 0.08740234 C155.97657777 0.08164771 157.37039186 0.07589002 158.76420593 0.07012939 C161.68704598 0.05962772 164.60985859 0.05377982 167.53271484 0.05029297 C171.26850014 0.04481439 175.00391983 0.02079689 178.73959064 -0.00767899 C181.61959372 -0.02635251 184.49950962 -0.03151349 187.3795681 -0.03304291 C188.75621727 -0.03606009 190.13286526 -0.04405698 191.50945473 -0.05722809 C193.44047392 -0.07438294 195.37164454 -0.07054994 197.30273438 -0.06591797 C198.39955032 -0.0695636 199.49636627 -0.07320923 200.62641907 -0.07696533 C204.24431937 0.35288421 206.62028254 1.39590733 209.71948242 3.29052734 C211.71948242 6.29052734 211.71948242 6.29052734 211.71948242 9.29052734 C212.48389648 8.96439453 213.24831055 8.63826172 214.03588867 8.30224609 C231.72615252 1.08564026 249.50085124 0.14126779 268.36433411 0.1366272 C270.14734148 0.13260581 271.93034794 0.12816648 273.71335334 0.12334764 C278.59099448 0.11145388 283.46862578 0.10575066 288.34627855 0.10116649 C293.61483103 0.09518378 298.8833719 0.0835816 304.1519165 0.07287598 C316.85639437 0.04842638 329.56087605 0.0337428 342.26537016 0.02081591 C345.85345462 0.01710078 349.44153871 0.01312788 353.02962279 0.00906324 C375.31918468 -0.0161589 397.60874721 -0.03820784 419.8983202 -0.0506649 C425.05314448 -0.05359445 430.20796874 -0.05655616 435.36279297 -0.05957031 C436.64395356 -0.06031636 437.92511414 -0.06106241 439.24509778 -0.06183107 C460.03350254 -0.07450509 480.82182219 -0.10776188 501.61018709 -0.14937215 C522.95649912 -0.19174941 544.30276747 -0.21535439 565.64912146 -0.22058547 C577.63343167 -0.22400258 589.61760839 -0.23579483 601.60187721 -0.2686882 C611.79872645 -0.29663086 621.99541478 -0.30771306 632.19229934 -0.29649274 C637.39615747 -0.29129287 642.59967827 -0.29427955 647.80348778 -0.31895828 C652.56469167 -0.34135051 657.32531392 -0.34078943 662.08652731 -0.32175441 C663.81106626 -0.31894044 665.53564382 -0.32462998 667.26012037 -0.33956735 C669.60107099 -0.35860916 671.93993347 -0.34693104 674.28083515 -0.32750511 C676.23238702 -0.32953991 676.23238702 -0.32953991 678.22336417 -0.33161581 C682.83573855 0.48916797 684.45618133 1.97930481 687.71948242 5.29052734 C688.50588989 7.86351013 688.50588989 7.86351013 688.5559082 10.62817383 C688.58838654 11.66952988 688.62086487 12.71088593 688.65432739 13.78379822 C688.65778168 14.89847977 688.66123596 16.01316132 688.66479492 17.16162109 C688.68798798 18.3167067 688.71118103 19.4717923 688.7350769 20.66188049 C688.77728131 23.10177528 688.8049428 25.54195897 688.8190918 27.98217773 C688.84437532 31.7122266 688.92289208 35.43838197 689.00854492 39.16748047 C689.04297182 41.54048338 689.07432432 43.9135333 689.10229492 46.28662109 C689.12599152 47.39927841 689.14968811 48.51193573 689.17410278 49.65830994 C689.17977788 55.85410864 688.91267167 59.59688602 684.71948242 64.29052734 C681.17370049 67.02173775 676.78224101 66.73265419 672.46948242 66.91552734 C671.7244043 66.95419922 670.97932617 66.99287109 670.21166992 67.03271484 C668.38133002 67.12657843 666.55044099 67.20962452 664.71948242 67.29052734 C665.38334961 67.87060547 666.0472168 68.45068359 666.73120117 69.04833984 C679.74056215 80.55735116 686.83241271 92.38702668 688.59448242 110.04443359 C689.52998668 126.85427566 687.57273358 141.74536107 676.84448242 155.29052734 C666.34652859 166.28706473 651.69049295 169.74888191 636.9782207 170.4752357 C632.78488499 170.55271158 628.59600948 170.5672715 624.40219116 170.55795288 C622.78758872 170.56169701 621.17298808 170.56630154 619.55839026 170.57168353 C615.15500542 170.58383474 610.75169701 170.58366244 606.34829926 170.58129478 C601.5860086 170.5808846 596.82374179 170.5919448 592.0614624 170.60140991 C582.743634 170.61797757 573.42583091 170.62351754 564.107989 170.62463467 C556.52884352 170.62558715 548.94970635 170.62970744 541.37056351 170.63603592 C519.85130168 170.65363676 498.33205975 170.6628766 476.81279068 170.66137497 C475.6542304 170.66129506 474.49567012 170.66121515 473.30200195 170.66113281 C471.56202359 170.66101017 471.56202359 170.66101017 469.78689416 170.66088505 C450.99586297 170.66007248 432.20491199 170.67920599 413.413904 170.70740955 C394.08905292 170.73618398 374.76424092 170.74994733 355.43936789 170.74822199 C344.60214639 170.74755967 333.76500898 170.75298277 322.92780685 170.77457809 C313.69976022 170.79284997 304.47183582 170.7970881 295.24377887 170.78355925 C290.54263053 170.77705982 285.84171628 170.77680202 281.14059067 170.79426575 C252.9496165 170.89234888 227.91573281 170.51908517 204.71948242 152.29052734 C203.72948242 151.63052734 202.73948242 150.97052734 201.71948242 150.29052734 C201.11362305 150.94279297 200.50776367 151.59505859 199.88354492 152.26708984 C188.72097358 163.91051041 176.80249618 170.17026633 160.38549805 170.80810547 C157.799036 170.8340888 155.21227524 170.83781804 152.62573242 170.82177734 C151.22196181 170.82448413 149.81819304 170.82837627 148.41442871 170.83337402 C145.49656017 170.83921365 142.57918708 170.83088858 139.66137695 170.81201172 C135.96344789 170.78922456 132.26668093 170.80237799 128.56879425 170.82630157 C125.67726236 170.84091181 122.78599583 170.83608501 119.89445496 170.82579041 C117.88189926 170.82190975 115.86933226 170.83383263 113.85681152 170.84631348 C102.58986382 170.73312689 91.68941188 168.78055241 82.03198242 162.66552734 C81.07936523 162.07513672 80.12674805 161.48474609 79.14526367 160.87646484 C77.33074714 159.69016257 75.5232829 158.49306099 73.71948242 157.29052734 C73.29280273 157.66564453 72.86612305 158.04076172 72.42651367 158.42724609 C56.55813328 171.4164152 36.33990822 170.62033639 16.96948242 170.66162109 C14.78043563 170.67060221 12.5913894 170.67972429 10.40234375 170.6889801 C5.84023554 170.70537742 1.27819999 170.71315497 -3.28393555 170.71606445 C-9.12939057 170.72148193 -14.97416564 170.75933964 -20.81942749 170.80480862 C-25.32841519 170.83451475 -29.83723641 170.84178639 -34.34631348 170.8427906 C-36.50251426 170.84699481 -38.65871546 170.85943705 -40.81481934 170.88030815 C-43.82083167 170.90712745 -46.82522847 170.90242848 -49.83129883 170.88989258 C-51.16228355 170.91214401 -51.16228355 170.91214401 -52.52015686 170.93484497 C-56.91167187 170.88262498 -58.71677356 170.72855972 -62.28938293 167.95262146 C-66.77871399 161.95050511 -66.54607164 155.53494968 -66.36254883 148.37646484 C-66.34463791 147.44379791 -66.32672699 146.51113098 -66.30827332 145.55020142 C-66.26726342 143.58852229 -66.22072305 141.62695179 -66.16894531 139.66552734 C-66.09308537 136.6682057 -66.04420265 133.67123838 -65.99731445 130.67333984 C-65.95402287 128.76184389 -65.90915491 126.85038285 -65.86254883 124.93896484 C-65.8498848 124.04615814 -65.83722076 123.15335144 -65.82417297 122.23348999 C-65.67492799 117.46938869 -65.3955284 114.13944614 -62.28051758 110.29052734 C-57.29260946 106.88415107 -52.14567985 106.62667301 -46.28051758 106.29052734 C-46.84899414 105.85224609 -47.4174707 105.41396484 -48.00317383 104.96240234 C-56.85805405 97.68927869 -62.50375598 88.41893345 -65.28051758 77.29052734 C-65.46098633 76.58283203 -65.64145508 75.87513672 -65.82739258 75.14599609 C-68.67341069 57.21117504 -65.71136478 38.38095935 -55.28051758 23.29052734 C-41.11599782 4.92217091 -22.36117948 -0.01573346 0 0 Z M264.71948242 84.29052734 C267.3907791 86.96182402 269.38549482 87.22694552 273.10131836 87.40405273 C273.96015625 87.39881592 274.81899414 87.3935791 275.70385742 87.38818359 C276.63842773 87.38496094 277.57299805 87.38173828 278.53588867 87.37841797 C279.98801758 87.36584961 279.98801758 87.36584961 281.46948242 87.35302734 C282.94481445 87.34625977 282.94481445 87.34625977 284.44995117 87.33935547 C286.87319033 87.32759217 289.29630516 87.31115418 291.71948242 87.29052734 C291.71948242 86.30052734 291.71948242 85.31052734 291.71948242 84.29052734 C282.80948242 84.29052734 273.89948242 84.29052734 264.71948242 84.29052734 Z " fill="#040404" transform="translate(231.280517578125,80.70947265625)"/>
<path d="M0 0 C311.52 0 623.04 0 944 0 C944 95.04 944 190.08 944 288 C863.48 288 782.96 288 700 288 C700 300.54 700 313.08 700 326 C549.52 326 399.04 326 244 326 C244 313.46 244 300.92 244 288 C163.48 288 82.96 288 0 288 C0 192.96 0 97.92 0 0 Z M9 9 C9 98.43 9 187.86 9 280 C86.55 280 164.1 280 244 280 C244 270.1 244 260.2 244 250 C394.48 250 544.96 250 700 250 C700 259.9 700 269.8 700 280 C777.55 280 855.1 280 935 280 C935 190.57 935 101.14 935 9 C629.42 9 323.84 9 9 9 Z " fill="#000000" transform="translate(28,26)"/>
<path d="M0 0 C12.21 0 24.42 0 37 0 C34.77376655 13.35740072 34.77376655 13.35740072 32.8125 19.5625 C30.47728524 27.15194798 28.46423604 34.80687513 26.5 42.5 C24.47964547 50.38623599 22.42784236 58.25345844 20.125 66.0625 C19.82045898 67.09697266 19.82045898 67.09697266 19.50976562 68.15234375 C18.79868744 70.52424469 18.10961622 72.78076757 17 75 C29.375 74.505 29.375 74.505 42 74 C42 86.37358277 42 86.37358277 41.265625 91.31005859 C41.10545898 92.4142514 40.94529297 93.51844421 40.78027344 94.65609741 C40.51778809 96.38480576 40.51778809 96.38480576 40.25 98.1484375 C39.98364746 99.97177109 39.98364746 99.97177109 39.71191406 101.8319397 C39.14866194 105.68075704 38.57501132 109.52792344 38 113.375 C37.42650312 117.2436983 36.85528602 121.11270372 36.28808594 124.98233032 C35.93597592 127.38133943 35.58000858 129.77978634 35.21972656 132.17758179 C35.05956055 133.26286163 34.89939453 134.34814148 34.734375 135.46630859 C34.59225586 136.41686127 34.45013672 137.36741394 34.30371094 138.34677124 C34.00860655 140.92481289 33.94476851 143.40782916 34 146 C34.45213867 145.11554199 34.90427734 144.23108398 35.37011719 143.31982422 C50.51125447 113.72148135 50.51125447 113.72148135 58.4543457 99.3581543 C63.65613508 89.90318421 68.56640312 80.29841245 73.48266602 70.69287109 C73.81126617 70.05194016 74.13986633 69.41100922 74.47842407 68.75065613 C75.37179825 67.00730774 76.26300627 65.2628498 77.15405273 63.51831055 C79.36370477 59.3067915 81.69028637 55.15748454 84 51 C76.41 50.67 68.82 50.34 61 50 C61.85980469 48.42734375 62.71960938 46.8546875 63.60546875 45.234375 C65.78930409 41.23163722 67.95887623 37.22177489 70.11328125 33.203125 C70.63986328 32.2234375 71.16644531 31.24375 71.70898438 30.234375 C72.76885582 28.26180062 73.82619421 26.28786289 74.88085938 24.3125 C75.97090134 22.28870399 77.10245776 20.28682697 78.27026367 18.30688477 C79.63509432 15.69762138 80.42212099 13.69530631 81.20825195 10.92553711 C82.81580036 6.18408928 84.56088927 2.59282479 89 0 C99.40535551 -2.44504312 110.54308023 -1.47709836 121.14019775 -1.02996826 C125.89346934 -0.84851825 130.64958911 -0.78049292 135.4053421 -0.69316864 C142.60941016 -0.54832142 149.79500772 -0.2609804 157 0 C157 15.18 157 30.36 157 46 C152.98972656 46.04898438 148.97945312 46.09796875 144.84765625 46.1484375 C141.62859563 46.19304653 138.4095743 46.23953801 135.19055939 46.28729248 C131.80440692 46.3370145 128.41828412 46.38350185 125.03198242 46.421875 C121.13702953 46.46775701 117.24241063 46.52571394 113.34765625 46.5859375 C111.54712547 46.60326431 111.54712547 46.60326431 109.71022034 46.62094116 C98.29938558 46.71234452 98.29938558 46.71234452 88 51 C87.41657647 54.45769191 87.41657647 54.45769191 88 58 C90.26844268 60.36553332 91.68653736 60.9576127 94.94866943 61.39872742 C96.66742279 61.415382 96.66742279 61.415382 98.42089844 61.43237305 C99.72194519 61.45216721 101.02299194 61.47196136 102.36346436 61.49235535 C103.77876643 61.49912466 105.19407008 61.50557158 106.609375 61.51171875 C108.06098958 61.52856836 109.51258959 61.54671898 110.96417236 61.56611633 C114.7781316 61.61359242 118.59203177 61.64341695 122.40618896 61.66955566 C126.98604263 61.70461926 131.5656695 61.76162511 136.14533997 61.81494904 C143.09686451 61.89343507 150.04809274 61.94406068 157 62 C157 72.89 157 83.78 157 95 C152.58238281 94.96519531 148.16476562 94.93039063 143.61328125 94.89453125 C140.08538823 94.87523111 136.55751018 94.85896529 133.02959442 94.84474945 C129.30843977 94.82892369 125.58749094 94.80778388 121.86645508 94.77368164 C118.28083959 94.74102705 114.69542338 94.72313424 111.10967064 94.71536827 C109.74334769 94.70983565 108.37703535 94.69903164 107.0107975 94.68280983 C105.09365143 94.66095725 103.17630378 94.65977393 101.2590332 94.65942383 C100.16871292 94.65276199 99.07839264 94.64610016 97.95503235 94.63923645 C94.56821051 95.05271479 92.70351328 95.94251605 90 98 C88.66449153 100.84627591 88.66449153 100.84627591 89 104 C91.15385669 106.61955544 92.95946594 108.47973297 96 110 C97.91730186 110.09753983 99.83803223 110.13077111 101.7578125 110.1328125 C102.93303467 110.13474609 104.10825684 110.13667969 105.3190918 110.13867188 C106.5750415 110.13416016 107.83099121 110.12964844 109.125 110.125 C110.40221924 110.12306641 111.67943848 110.12113281 112.99536133 110.11914062 C120.8000955 110.08345504 128.51171955 109.82121388 136.29296875 109.22265625 C143.18926655 108.80844237 150.09430945 108.92308018 157 109 C157.17433825 112.43715283 157.33786273 115.87475177 157.5 119.3125 C157.57154297 120.71918945 157.57154297 120.71918945 157.64453125 122.15429688 C158.0901466 131.79868619 158 141.30559867 158 151 C105.86 151 53.72 151 0 151 C-0.33 128.89 -0.66 106.78 -1 84 C-3.32251426 79.11504475 -3.32251426 79.11504475 -6 78 C-8.10374996 77.84558791 -10.21195119 77.75007361 -12.3203125 77.68359375 C-13.57714844 77.64169922 -14.83398438 77.59980469 -16.12890625 77.55664062 C-17.44761719 77.51732422 -18.76632812 77.47800781 -20.125 77.4375 C-21.46485751 77.39430488 -22.80470156 77.35069027 -24.14453125 77.30664062 C-27.42957815 77.20029019 -30.71470281 77.09826192 -34 77 C-34 75.35 -34 73.7 -34 72 C-33.17274414 71.9906543 -32.34548828 71.98130859 -31.49316406 71.97167969 C-27.74483585 71.91799681 -23.99775838 71.8343429 -20.25 71.75 C-18.29707031 71.72873047 -18.29707031 71.72873047 -16.3046875 71.70703125 C-14.42910156 71.65869141 -14.42910156 71.65869141 -12.515625 71.609375 C-11.36352539 71.58842773 -10.21142578 71.56748047 -9.02441406 71.54589844 C-5.41035663 70.89357099 -4.25105245 69.83805256 -2 67 C-0.6109048 64.2218096 -0.83668449 61.91465255 -0.79467773 58.80615234 C-0.77473251 57.50495453 -0.75478729 56.20375671 -0.73423767 54.86312866 C-0.71725327 53.4373995 -0.70037447 52.01166907 -0.68359375 50.5859375 C-0.66302479 49.13147387 -0.64202834 47.67701623 -0.62062073 46.2225647 C-0.56539396 42.39213912 -0.5159874 38.56165955 -0.46777344 34.73114014 C-0.40873673 30.1363941 -0.34250544 25.54174687 -0.27747345 20.94708252 C-0.17945629 13.96478197 -0.09060565 6.98241839 0 0 Z " fill="#FCFCFC" transform="translate(567,91)"/>
<path d="M0 0 C1.2325074 -0.002062 1.2325074 -0.002062 2.48991394 -0.00416565 C3.38255447 -0.00057037 4.27519501 0.0030249 5.19488525 0.00672913 C6.61490593 0.00651009 6.61490593 0.00651009 8.06361389 0.00628662 C11.19105322 0.00698299 14.3184329 0.01476253 17.44586182 0.02259827 C19.61490852 0.02446342 21.78395565 0.02588687 23.95300293 0.02688599 C29.66090051 0.03070346 35.36877263 0.0405272 41.07666016 0.05158997 C47.92574029 0.06361948 54.77482895 0.06820999 61.62391663 0.07404327 C72.02812439 0.08373933 82.4322763 0.10290131 92.83648682 0.12025452 C92.83648682 15.30025452 92.83648682 30.48025452 92.83648682 46.12025452 C87.91355713 46.08544983 82.99062744 46.05064514 77.91851807 46.01478577 C74.79676139 45.99945425 71.67505123 45.98501221 68.55328369 45.97377014 C63.59997905 45.95584774 58.64684103 45.93466227 53.69366455 45.89393616 C49.69956831 45.86130192 45.7056508 45.84339296 41.7114315 45.83562279 C40.18881098 45.83008655 38.66620006 45.81927552 37.14365578 45.80306435 C35.00825612 45.78123538 32.87359172 45.77828977 30.73809814 45.77967834 C29.52342361 45.77301651 28.30874908 45.76635468 27.05726624 45.75949097 C23.51426599 46.15634688 21.6074916 46.89364645 18.83648682 49.12025452 C18.41902074 52.24660661 18.41902074 52.24660661 18.83648682 55.12025452 C23.31220946 57.69126986 26.49764131 58.48108123 31.64117432 58.45619202 C32.93966309 58.46529602 34.23815186 58.47440002 35.57598877 58.48377991 C36.25231354 58.48459564 36.92863831 58.48541138 37.62545776 58.48625183 C53.17476047 58.55335803 67.58526352 59.05078188 79.78961182 70.02650452 C91.42491058 81.9282605 93.11601371 95.58231091 93.15557861 111.60169983 C93.05803724 118.42582051 92.0664578 124.02975367 88.83648682 130.12025452 C88.46265869 130.85373108 88.08883057 131.58720764 87.70367432 132.34291077 C82.66249134 141.27348325 74.85016455 146.07989957 65.33648682 149.30775452 C58.30797881 150.93937245 51.49520457 151.26677522 44.31524658 151.24964905 C43.39884903 151.25140137 42.48245148 151.25315369 41.5382843 151.25495911 C38.53480083 151.25933085 35.53137705 151.25645792 32.52789307 151.25306702 C30.43421925 151.25374099 28.3405455 151.2547118 26.24687195 151.25596619 C21.87349701 151.25743646 17.50014257 151.25530864 13.12677002 151.25062561 C7.5086153 151.24490395 1.89050809 151.24822689 -3.72764492 151.25419807 C-8.04344546 151.25780073 -12.35923461 151.2566669 -16.67503548 151.25407028 C-18.74798653 151.25340147 -20.82093861 151.25422785 -22.89388847 151.25654984 C-25.77863209 151.25907417 -28.66329696 151.25524003 -31.54803467 151.24964905 C-32.84224335 151.25268539 -32.84224335 151.25268539 -34.16259766 151.25578308 C-40.04924551 151.23452219 -40.04924551 151.23452219 -41.16351318 150.12025452 C-41.22699658 148.76812761 -41.22074711 147.41261415 -41.1852417 146.0594635 C-41.16514542 145.1986467 -41.14504913 144.3378299 -41.12434387 143.45092773 C-41.08379128 142.0478109 -41.08379128 142.0478109 -41.04241943 140.61634827 C-41.00700294 139.18682579 -41.00700294 139.18682579 -40.97087097 137.72842407 C-40.89402931 134.67139031 -40.81009372 131.61459694 -40.72601318 128.55775452 C-40.672813 126.49070916 -40.62007249 124.42365192 -40.56781006 122.35658264 C-40.43838656 117.27765311 -40.30259877 112.19892827 -40.16351318 107.12025452 C-39.51364441 107.11216766 -38.86377563 107.10408081 -38.19421387 107.0957489 C-31.37975767 107.00913895 -24.56557369 106.90961653 -17.75140381 106.8028717 C-15.21434125 106.76478349 -12.67722838 106.72989694 -10.14007568 106.69837952 C-6.4758313 106.65228839 -2.81192727 106.59436941 0.85211182 106.53431702 C1.97136047 106.52276581 3.09060913 106.5112146 4.24377441 106.49931335 C16.57078154 106.77998698 16.57078154 106.77998698 27.6920166 102.71562195 C29.13713129 101.07889559 29.13713129 101.07889559 28.52398682 98.43275452 C28.29711182 97.66962952 28.07023682 96.90650452 27.83648682 96.12025452 C24.28908319 94.93778664 21.14098562 95.05104052 17.45758057 95.12806702 C15.96344699 95.14560499 14.46930588 95.16251114 12.97515869 95.17884827 C10.6340415 95.20959785 8.29330836 95.24486845 5.95245361 95.29164124 C-8.25329222 95.56032923 -19.15145814 94.20894327 -30.06976318 84.40931702 C-40.05478447 74.03015015 -41.69907729 63.79046636 -41.73358154 49.96205139 C-41.41895363 35.81656621 -36.58021919 21.6773652 -26.78070068 11.22962952 C-19.54683444 5.39934926 -9.42715373 -0.01221134 0 0 Z " fill="#FDFDFD" transform="translate(216.16351318359375,90.87974548339844)"/>
<path d="M0 0 C13.2 0 26.4 0 40 0 C40.04898438 5.64738281 40.09796875 11.29476562 40.1484375 17.11328125 C40.18385805 20.70900138 40.21983756 24.30469878 40.2578125 27.90039062 C40.31792359 33.59705201 40.37605889 39.29368189 40.421875 44.99047852 C40.45897799 49.58769217 40.50540287 54.18472895 40.55806351 58.78178978 C40.57647548 60.52825987 40.59163111 62.27476768 40.60334396 64.02129555 C40.66707018 73.20214637 40.83313474 82.01757035 43 91 C45.64 91 48.28 91 51 91 C53.43998957 85.25683787 54.44429552 80.681503 54.43237305 74.47265625 C54.4425647 73.66194168 54.45275635 72.85122711 54.46325684 72.01594543 C54.49319364 69.3647249 54.50262291 66.71386678 54.51171875 64.0625 C54.5285798 62.21304136 54.54673195 60.36359407 54.56611633 58.51416016 C54.61346765 53.66782176 54.64337299 48.82152944 54.66955566 43.97503662 C54.70469842 38.14863095 54.76166864 32.32240214 54.81494904 26.49613953 C54.89328849 17.66411595 54.94402594 8.83232113 55 0 C75.13 0 95.26 0 116 0 C116.16043524 27.9291009 116.16043524 27.9291009 116.1953125 39.88867188 C116.21916865 48.0302999 116.24669916 56.17174842 116.30175781 64.31323242 C116.34615527 70.88143003 116.36917789 77.44950648 116.37950897 84.01784706 C116.38686585 86.51632047 116.40123162 89.01478396 116.42292023 91.51317406 C116.68016592 122.39090833 116.68016592 122.39090833 108 133 C107.4225 133.71800781 106.845 134.43601563 106.25 135.17578125 C98.19639929 144.78662116 89.33448849 149.18585554 77 151 C75.0580119 151.09571679 73.11348815 151.14763938 71.16918945 151.16113281 C70.04394363 151.17074036 68.91869781 151.1803479 67.75935364 151.19024658 C66.55614975 151.19449646 65.35294586 151.19874634 64.11328125 151.203125 C62.86048874 151.20882507 61.60769623 151.21452515 60.31694031 151.22039795 C57.66836932 151.22983113 55.01991113 151.23673647 52.37133789 151.24023438 C49.67425992 151.24461604 46.97750239 151.25850168 44.28051758 151.28125 C40.3705078 151.31187733 36.46089798 151.32230085 32.55078125 151.328125 C30.76115715 151.3466452 30.76115715 151.3466452 28.93537903 151.36553955 C17.05796206 151.33429933 3.67227316 148.91063884 -5.125 140.1875 C-5.74375 139.465625 -6.3625 138.74375 -7 138 C-5.95983868 134.71949124 -4.82117492 131.59227882 -3.4375 128.4375 C2.43205637 114.40160433 0.12456838 94.24147067 -4.99609375 80.28515625 C-8.21990282 73.04552966 -13.44646388 67.55353612 -19 62 C-19.04092937 59.66702567 -19.04241723 57.33294775 -19 55 C-18.11957031 54.98582031 -17.23914063 54.97164062 -16.33203125 54.95703125 C-15.17058594 54.90933594 -14.00914062 54.86164063 -12.8125 54.8125 C-11.66394531 54.77769531 -10.51539063 54.74289063 -9.33203125 54.70703125 C-4.91500784 53.76977306 -3.6922575 52.6376991 -1 49 C-0.24827076 45.269015 -0.27869589 41.58927604 -0.29296875 37.79296875 C-0.27784744 36.71243729 -0.26272614 35.63190582 -0.24714661 34.51863098 C-0.20423242 31.07470898 -0.19542756 27.63166287 -0.1875 24.1875 C-0.16435875 21.84958603 -0.1389942 19.51169293 -0.11132812 17.17382812 C-0.04426107 11.44874052 -0.0233372 5.72610048 0 0 Z " fill="#FDFDFD" transform="translate(318,91)"/>
<path d="M0 0 C1.81651867 -0.00134971 3.633037 -0.00329278 5.44955444 -0.00579834 C9.22991423 -0.00872772 13.01017873 -0.0045179 16.79052734 0.00488281 C21.64176183 0.01635823 26.49277695 0.00965343 31.34400368 -0.00226212 C35.08252637 -0.00947043 38.82099649 -0.00719896 42.55952072 -0.00200653 C44.3497457 -0.0006714 46.13997543 -0.00231298 47.93019485 -0.00696564 C50.41925104 -0.01202284 52.90794371 -0.00433599 55.39697266 0.00683594 C56.13769012 0.00278748 56.87840759 -0.00126099 57.64157104 -0.00543213 C62.73239117 0.03707867 62.73239117 0.03707867 64.9609375 2.265625 C65.20817566 4.81520081 65.20817566 4.81520081 65.20385742 8.07641602 C65.20847237 9.90324669 65.20847237 9.90324669 65.21318054 11.76698303 C65.20628333 13.10116769 65.1990164 14.43535047 65.19140625 15.76953125 C65.19021452 17.13191179 65.18976127 18.49429316 65.1900177 19.85667419 C65.18845273 22.71236308 65.1801613 25.56792662 65.16674805 28.42358398 C65.14974203 32.09138387 65.14593415 35.75904614 65.14669323 39.42688084 C65.14642186 42.23977482 65.14094631 45.05263847 65.13369179 47.86552238 C65.13050101 49.21837064 65.12853676 50.57122235 65.12779808 51.92407417 C65.12563977 53.81080479 65.11611025 55.69752269 65.10620117 57.58422852 C65.10238937 58.65963394 65.09857758 59.73503937 65.09465027 60.84303284 C64.9609375 63.265625 64.9609375 63.265625 63.9609375 64.265625 C62.06002772 64.37344068 60.1551512 64.41190035 58.2512207 64.42333984 C57.02937576 64.43360199 55.80753082 64.44386414 54.54866028 64.45443726 C53.56251708 64.45959414 53.56251708 64.45959414 52.5564518 64.46485519 C50.50052309 64.4766266 48.44480613 64.49607746 46.38896179 64.51797485 C40.54201362 64.57962923 34.69508303 64.63352798 28.84790039 64.66699219 C25.27391704 64.68799933 21.70031284 64.7233581 18.12654686 64.76774979 C16.76671009 64.78187122 15.40680616 64.7906235 14.0468998 64.79380417 C12.13705955 64.79874103 10.2273025 64.82355837 8.31762695 64.84912109 C7.23254349 64.85720795 6.14746002 64.8652948 5.02949524 64.87362671 C0.52227478 65.44940949 -2.82836111 67.05492361 -6.0390625 70.265625 C-6.75105943 76.18939222 -6.75105943 76.18939222 -3.7890625 81.140625 C0.66788395 84.58462907 3.43678689 85.51533048 9.10644531 85.58447266 C10.36473145 85.60453369 11.62301758 85.62459473 12.91943359 85.64526367 C14.8967749 85.66230347 14.8967749 85.66230347 16.9140625 85.6796875 C18.12884277 85.69733154 19.34362305 85.71497559 20.59521484 85.7331543 C25.13365433 85.79622746 29.67231585 85.84240986 34.2109375 85.890625 C44.3584375 86.014375 54.5059375 86.138125 64.9609375 86.265625 C64.9609375 107.715625 64.9609375 129.165625 64.9609375 151.265625 C46.59555936 151.38595143 46.59555936 151.38595143 38.67773438 151.41210938 C33.30614161 151.42994045 27.93470437 151.45087574 22.56323242 151.49194336 C18.22544734 151.52489477 13.88782939 151.54255217 9.54992867 151.55025673 C7.90718523 151.55573683 6.2644494 151.56643486 4.62177849 151.58281517 C-17.97828123 151.79890984 -37.74829804 146.68711762 -55.0390625 131.265625 C-54.83410156 130.48058594 -54.62914062 129.69554687 -54.41796875 128.88671875 C-54.14855469 127.83613281 -53.87914062 126.78554687 -53.6015625 125.703125 C-53.33472656 124.67058594 -53.06789063 123.63804687 -52.79296875 122.57421875 C-51.23719328 115.74654089 -50.90864026 109.24226722 -50.96069336 102.27880859 C-50.96680446 100.25312349 -50.97273173 98.22743782 -50.97850037 96.20175171 C-50.98317259 95.13644604 -50.98784481 94.07114037 -50.99265862 92.9735527 C-51.01189629 87.31308267 -50.99662757 81.65266742 -50.98632812 75.9921875 C-50.97406093 68.79794762 -50.97257048 61.60430472 -51.01489258 54.41015625 C-51.04824759 48.58565254 -51.04290295 42.76232406 -51.01132393 36.93782425 C-51.00639346 34.72023726 -51.01571228 32.50257118 -51.03953362 30.28510666 C-51.0708843 27.18661815 -51.05280901 24.0920735 -51.02319336 20.99365234 C-51.05466713 19.620476 -51.05466713 19.620476 -51.08677673 18.21955872 C-51.03248794 15.66142778 -50.9088221 13.67398214 -50.0390625 11.265625 C-47.63153801 8.97489714 -45.06174876 7.60231058 -42.0390625 6.265625 C-41.12640625 5.83894531 -40.21375 5.41226563 -39.2734375 4.97265625 C-26.26654287 0.28935614 -13.64927565 -0.03594054 0 0 Z " fill="#FDFDFD" transform="translate(493.0390625,90.734375)"/>
<path d="M0 0 C1.61610807 0.00985645 3.23223904 0.01644859 4.84837341 0.01992798 C8.22900816 0.03517947 11.60794035 0.07619957 14.98803711 0.13818359 C19.31459732 0.21739628 23.64005285 0.25341441 27.96725559 0.27280235 C32.10331899 0.29277648 36.23911559 0.33250447 40.375 0.375 C41.55385867 0.38518724 41.55385867 0.38518724 42.75653267 0.39558029 C44.98717806 0.41881788 47.2171418 0.45586858 49.44750977 0.49755859 C51.34896507 0.52709122 51.34896507 0.52709122 53.28883362 0.55722046 C58.22284627 0.99304698 60.78399883 2.07142879 64.40527344 5.44628906 C67.2520052 9.14378105 67.24117377 12.82064091 67.07421875 17.3359375 C67.06436447 18.19188507 67.05451019 19.04783264 67.0443573 19.92971802 C67.02054009 21.81754764 66.98552998 23.70526042 66.94088745 25.5927124 C66.81766617 30.90485895 66.78319541 36.21799005 66.734375 41.53125 C66.72136856 42.70523346 66.70836212 43.87921692 66.69496155 45.08877563 C66.54655104 60.32155011 66.77289695 75.550682 66.98937988 90.78186035 C67.04724271 94.85661198 67.09899172 98.93141376 67.14906311 103.00626755 C67.33974568 118.31006493 67.59530728 133.5763795 68.62109375 148.8515625 C69.41547758 163.79279786 69.41547758 163.79279786 66.24609375 167.7265625 C62.20905085 170.99464485 59.44156652 171.01402687 54.42089844 171.04443359 C53.30837959 171.05669983 53.30837959 171.05669983 52.17338562 171.06921387 C49.71325489 171.09407185 47.25318194 171.11058615 44.79296875 171.125 C43.9527845 171.13032368 43.11260025 171.13564735 42.24695587 171.14113235 C37.79859835 171.1678676 33.35026891 171.18723998 28.90185547 171.20166016 C24.31054578 171.2182957 19.71995561 171.26306265 15.12891769 171.3140316 C11.59610181 171.34771765 8.06345629 171.3592391 4.53049469 171.36488724 C2.83841716 171.37159759 1.14635076 171.38681419 -0.54557037 171.41077805 C-2.9180171 171.44245928 -5.2885294 171.44246276 -7.66113281 171.43505859 C-8.35642593 171.45146393 -9.05171906 171.46786926 -9.76808167 171.48477173 C-13.4982675 171.43727139 -15.91349022 170.80450447 -18.81968689 168.55908203 C-21.69453976 165.51763884 -22.05324748 163.81067554 -22.03315735 159.67883301 C-21.9990123 158.86184937 -21.96486725 158.04486572 -21.9296875 157.203125 C-21.91846359 156.31540405 -21.90723969 155.42768311 -21.89567566 154.51306152 C-21.86813065 152.54821887 -21.82703396 150.58353272 -21.77441406 148.61920166 C-21.62763451 143.06219254 -21.58441295 137.50380829 -21.5234375 131.9453125 C-21.50713287 130.71233429 -21.49082825 129.47935608 -21.47402954 128.20901489 C-21.27638491 111.32916276 -21.58813525 94.45245417 -21.84023666 77.5745163 C-21.90325281 73.34087786 -21.96421886 69.10721107 -22.0246582 64.87353516 C-22.0364294 64.05701036 -22.04820059 63.24048557 -22.06032848 62.39921761 C-22.11730022 58.38791011 -22.16957113 54.37663122 -22.21208191 50.36514282 C-22.22860956 48.82057679 -22.24515495 47.27601095 -22.26171875 45.73144531 C-22.26957051 44.9826454 -22.27742228 44.23384548 -22.28551197 43.46235466 C-22.33561191 39.15441336 -22.42732725 34.85026121 -22.56116486 30.5441227 C-22.65594943 27.35280556 -22.71621313 24.16071544 -22.78515625 20.96875 C-22.83353638 19.84671173 -22.8819165 18.72467346 -22.9317627 17.56863403 C-23.02568401 11.72644553 -22.71365364 6.7856631 -18.7093811 2.26425171 C-13.22089112 -1.06276577 -6.21755818 -0.14486889 0 0 Z " fill="#FEFEFE" transform="translate(82.37890625,80.1484375)"/>
<path d="M0 0 C27.72 0 55.44 0 84 0 C84 15.18 84 30.36 84 46 C76.61560547 45.94779297 76.61560547 45.94779297 69.08203125 45.89453125 C65.96027457 45.87919973 62.83856442 45.8647577 59.71679688 45.85351562 C54.76349223 45.83559323 49.81035422 45.81440776 44.85717773 45.77368164 C40.86308149 45.74104741 36.86916398 45.72313844 32.87494469 45.71536827 C31.35232416 45.70983203 29.82971325 45.699021 28.30716896 45.68280983 C26.1717693 45.66098086 24.0371049 45.65803526 21.90161133 45.65942383 C20.6869368 45.65276199 19.47226227 45.64610016 18.22077942 45.63923645 C14.67777917 46.03609236 12.77100478 46.77339193 10 49 C9.58253392 52.12635209 9.58253392 52.12635209 10 55 C14.47572265 57.57101534 17.66115449 58.36082671 22.8046875 58.3359375 C24.10317627 58.3450415 25.40166504 58.35414551 26.73950195 58.36352539 C27.41582672 58.36434113 28.09215149 58.36515686 28.78897095 58.36599731 C44.33827365 58.43310351 58.7487767 58.93052737 70.953125 69.90625 C82.58842376 81.80800598 84.2795269 95.46205639 84.3190918 111.48144531 C84.22155042 118.30556599 83.22997099 123.90949915 80 130 C79.62617187 130.73347656 79.25234375 131.46695313 78.8671875 132.22265625 C73.82600453 141.15322874 66.01367773 145.95964505 56.5 149.1875 C47.75338316 151.21796462 39.15617441 151.13230028 30.21875 151.09765625 C28.79528859 151.09578803 27.37182654 151.09436603 25.94836426 151.09336853 C22.22646263 151.08957518 18.50460087 151.07977257 14.78271484 151.06866455 C10.97494038 151.05838152 7.16715939 151.05385623 3.359375 151.04882812 C-4.09376805 151.03814702 -11.54687841 151.02110946 -19 151 C-18.21302734 150.2177002 -17.42605469 149.43540039 -16.61523438 148.62939453 C-4.39666512 136.34466797 -1.12816737 123.69659768 1 107 C2.12019531 106.81824219 3.24039063 106.63648438 4.39453125 106.44921875 C5.86729569 106.19594079 7.33994622 105.94199984 8.8125 105.6875 C9.91948242 105.51057617 9.91948242 105.51057617 11.04882812 105.33007812 C14.05564712 104.79946301 16.51307783 104.34459107 19.03125 102.5625 C20.27300567 100.92110643 20.27300567 100.92110643 19.6875 98.3125 C19.3471875 97.1678125 19.3471875 97.1678125 19 96 C16.40742331 95.13580777 14.65962293 94.82419068 11.98828125 94.68359375 C11.23095703 94.64169922 10.47363281 94.59980469 9.69335938 94.55664062 C8.90767578 94.51732422 8.12199219 94.47800781 7.3125 94.4375 C6.51521484 94.39431641 5.71792969 94.35113281 4.89648438 94.30664062 C2.93118553 94.20072632 0.96561504 94.09987449 -1 94 C-1.27972656 92.97261719 -1.55945313 91.94523437 -1.84765625 90.88671875 C-5.90550823 76.60909142 -11.75698603 65.25199198 -25 57.5625 C-25.99 57.046875 -26.98 56.53125 -28 56 C-28 55.67 -28 55.34 -28 55 C-27.35973877 54.99589111 -26.71947754 54.99178223 -26.05981445 54.98754883 C-23.14312095 54.95453962 -20.22849616 54.88388974 -17.3125 54.8125 C-16.30509766 54.80669922 -15.29769531 54.80089844 -14.25976562 54.79492188 C-7.96712574 54.74591253 -7.96712574 54.74591253 -2.85546875 51.51171875 C-2.24316406 50.68285156 -1.63085938 49.85398438 -1 49 C-0.67 48.67 -0.34 48.34 0 48 C0.09311889 46.49581261 0.11746028 44.98728644 0.11352539 43.48022461 C0.11340454 42.50581421 0.11328369 41.53140381 0.11315918 40.52746582 C0.10804321 39.49617554 0.10292725 38.46488525 0.09765625 37.40234375 C0.09664917 36.45975708 0.09564209 35.51717041 0.09460449 34.54602051 C0.08935477 31.00983471 0.07539364 27.47366619 0.0625 23.9375 C0.0315625 12.0884375 0.0315625 12.0884375 0 0 Z " fill="#FDFDFD" transform="translate(826,91)"/>
<path d="M0 0 C27.39 0 54.78 0 83 0 C83.33 15.18 83.66 30.36 84 46 C79.00488281 45.96519531 74.00976562 45.93039063 68.86328125 45.89453125 C65.69595183 45.87919993 62.52866825 45.8647579 59.36132812 45.85351562 C54.33559653 45.83559249 49.31002913 45.814405 44.28442383 45.77368164 C40.23197316 45.74104998 36.17969862 45.72313898 32.12712669 45.71536827 C30.58217789 45.70983157 29.03723857 45.69901966 27.49236488 45.68280983 C25.32583523 45.66098434 23.16003037 45.65803512 20.9934082 45.65942383 C19.14474907 45.64943108 19.14474907 45.64943108 17.25874329 45.63923645 C13.69403083 46.03387273 11.78434894 46.75650536 9 49 C8.58253392 52.12635209 8.58253392 52.12635209 9 55 C13.50505633 57.5890143 16.76776581 58.3754271 21.9453125 58.40625 C22.92200394 58.42250427 22.92200394 58.42250427 23.91842651 58.43908691 C25.98738513 58.47309093 28.05580016 58.48886486 30.125 58.5 C45.99138835 58.58672218 59.72831036 60.08774626 71.8125 71.3125 C81.34123296 81.53626996 83.53035167 93.83815364 83.5 107.375 C83.52835938 108.51710938 83.55671875 109.65921875 83.5859375 110.8359375 C83.61324596 122.85165854 79.83806595 132.27364237 71.4296875 140.875 C57.74506482 152.8435446 37.53138594 151.41380707 20.5 151.1875 C18.50131229 151.17241005 16.50261342 151.15872935 14.50390625 151.14648438 C9.66898874 151.11385682 4.8346222 151.06231831 0 151 C-0.64259641 140.09469704 -1.15112958 129.24120943 -1.0625 118.3125 C-1.05798828 117.20583984 -1.05347656 116.09917969 -1.04882812 114.95898438 C-1.03734302 112.30592433 -1.02112001 109.6529976 -1 107 C0.27617188 106.80664062 1.55234375 106.61328125 2.8671875 106.4140625 C4.53652576 106.15146996 6.20579301 105.88842569 7.875 105.625 C8.71675781 105.49867188 9.55851563 105.37234375 10.42578125 105.2421875 C11.23144531 105.11328125 12.03710938 104.984375 12.8671875 104.8515625 C13.61081543 104.73635254 14.35444336 104.62114258 15.12060547 104.50244141 C17.22614355 104.10751677 17.22614355 104.10751677 19 102 C19.39764263 100.01178687 19.73775349 98.01055661 20 96 C15.57317509 94.9609622 11.21065368 94.68407049 6.6875 94.4375 C5.57665039 94.37272461 5.57665039 94.37272461 4.44335938 94.30664062 C2.62908536 94.20129568 0.8145645 94.10021684 -1 94 C-1.00410889 93.00145996 -1.00821777 92.00291992 -1.01245117 90.97412109 C-1.03431323 87.24997164 -1.08867401 83.52686818 -1.15258789 79.80322266 C-1.17570671 78.19525214 -1.19014924 76.58713152 -1.19555664 74.97900391 C-1.20489196 72.65953701 -1.24597459 70.34241086 -1.29296875 68.0234375 C-1.2890361 67.31069672 -1.28510345 66.59795593 -1.28105164 65.86361694 C-1.44457316 60.20076714 -3.18668996 57.87965155 -7 54 C-6.18885742 53.21246338 -5.37771484 52.42492676 -4.54199219 51.61352539 C-1.08306254 47.43702263 -1.28670813 43.42049705 -1.328125 38.18359375 C-1.31537537 37.24951187 -1.30262573 36.31542999 -1.28948975 35.3530426 C-1.25328802 32.38088415 -1.2504817 29.40985909 -1.25 26.4375 C-1.22833895 23.46199365 -1.1998132 20.48665618 -1.16766357 17.51124573 C-1.14999753 15.6637585 -1.13963049 13.81618315 -1.13751221 11.96861267 C-1.13370544 11.12746414 -1.12989868 10.28631561 -1.12597656 9.41967773 C-1.12551331 8.68498764 -1.12505005 7.95029755 -1.12457275 7.19334412 C-1 5 -1 5 0 0 Z " fill="#FDFDFD" transform="translate(734,91)"/>
<path d="M0 0 C1.61610807 0.00985645 3.23223904 0.01644859 4.84837341 0.01992798 C8.22900816 0.03517947 11.60794035 0.07619957 14.98803711 0.13818359 C19.31459732 0.21739628 23.64005285 0.25341441 27.96725559 0.27280235 C32.10331899 0.29277648 36.23911559 0.33250447 40.375 0.375 C41.55385867 0.38518724 41.55385867 0.38518724 42.75653267 0.39558029 C44.98717806 0.41881788 47.2171418 0.45586858 49.44750977 0.49755859 C51.34896507 0.52709122 51.34896507 0.52709122 53.28883362 0.55722046 C58.22284627 0.99304698 60.78399883 2.07142879 64.40527344 5.44628906 C67.2520052 9.14378105 67.24117377 12.82064091 67.07421875 17.3359375 C67.06436447 18.19188507 67.05451019 19.04783264 67.0443573 19.92971802 C67.02054009 21.81754764 66.98552998 23.70526042 66.94088745 25.5927124 C66.81766617 30.90485895 66.78319541 36.21799005 66.734375 41.53125 C66.72136856 42.70523346 66.70836212 43.87921692 66.69496155 45.08877563 C66.54655104 60.32155011 66.77289695 75.550682 66.98937988 90.78186035 C67.04724271 94.85661198 67.09899172 98.93141376 67.14906311 103.00626755 C67.33974568 118.31006493 67.59530728 133.5763795 68.62109375 148.8515625 C69.41547758 163.79279786 69.41547758 163.79279786 66.24609375 167.7265625 C62.20905085 170.99464485 59.44156652 171.01402687 54.42089844 171.04443359 C53.30837959 171.05669983 53.30837959 171.05669983 52.17338562 171.06921387 C49.71325489 171.09407185 47.25318194 171.11058615 44.79296875 171.125 C43.9527845 171.13032368 43.11260025 171.13564735 42.24695587 171.14113235 C37.79859835 171.1678676 33.35026891 171.18723998 28.90185547 171.20166016 C24.31054578 171.2182957 19.71995561 171.26306265 15.12891769 171.3140316 C11.59610181 171.34771765 8.06345629 171.3592391 4.53049469 171.36488724 C2.83841716 171.37159759 1.14635076 171.38681419 -0.54557037 171.41077805 C-2.9180171 171.44245928 -5.2885294 171.44246276 -7.66113281 171.43505859 C-8.35642593 171.45146393 -9.05171906 171.46786926 -9.76808167 171.48477173 C-13.4982675 171.43727139 -15.91349022 170.80450447 -18.81968689 168.55908203 C-21.69453976 165.51763884 -22.05324748 163.81067554 -22.03315735 159.67883301 C-21.9990123 158.86184937 -21.96486725 158.04486572 -21.9296875 157.203125 C-21.91846359 156.31540405 -21.90723969 155.42768311 -21.89567566 154.51306152 C-21.86813065 152.54821887 -21.82703396 150.58353272 -21.77441406 148.61920166 C-21.62763451 143.06219254 -21.58441295 137.50380829 -21.5234375 131.9453125 C-21.50713287 130.71233429 -21.49082825 129.47935608 -21.47402954 128.20901489 C-21.27638491 111.32916276 -21.58813525 94.45245417 -21.84023666 77.5745163 C-21.90325281 73.34087786 -21.96421886 69.10721107 -22.0246582 64.87353516 C-22.0364294 64.05701036 -22.04820059 63.24048557 -22.06032848 62.39921761 C-22.11730022 58.38791011 -22.16957113 54.37663122 -22.21208191 50.36514282 C-22.22860956 48.82057679 -22.24515495 47.27601095 -22.26171875 45.73144531 C-22.26957051 44.9826454 -22.27742228 44.23384548 -22.28551197 43.46235466 C-22.33561191 39.15441336 -22.42732725 34.85026121 -22.56116486 30.5441227 C-22.65594943 27.35280556 -22.71621313 24.16071544 -22.78515625 20.96875 C-22.83353638 19.84671173 -22.8819165 18.72467346 -22.9317627 17.56863403 C-23.02568401 11.72644553 -22.71365364 6.7856631 -18.7093811 2.26425171 C-13.22089112 -1.06276577 -6.21755818 -0.14486889 0 0 Z M-12.37890625 10.8515625 C-12.37890625 60.6815625 -12.37890625 110.5115625 -12.37890625 161.8515625 C11.05109375 161.8515625 34.48109375 161.8515625 58.62109375 161.8515625 C58.95109375 161.5215625 59.28109375 161.1915625 59.62109375 160.8515625 C59.53833786 158.45802471 59.39277527 156.0910531 59.21704102 153.70361328 C58.37843641 140.60680653 58.29519263 127.49045011 58.11584163 114.37183142 C58.06512626 110.72035195 58.01017026 107.06893608 57.95570374 103.41751099 C57.85363931 96.53328672 57.75527492 89.64901499 57.65830952 82.76471722 C57.52675859 73.44056971 57.38935056 64.11650851 57.25230694 54.79244041 C57.03718067 40.14554623 56.82975766 25.49855348 56.62109375 10.8515625 C33.85109375 10.8515625 11.08109375 10.8515625 -12.37890625 10.8515625 Z " fill="#030303" transform="translate(82.37890625,80.1484375)"/>
<path d="M0 0 C4.45146251 2.18526342 7.18885145 4.9394521 10 9 C11.98668578 14.96005735 11.98871422 21.66780719 9.375 27.4375 C6.71417351 32.0584371 3.00371727 34.33209424 -2 36 C-7.25765945 36.39680449 -10.56102842 35.89498146 -15 33 C-19.92235205 28.02457677 -21.18281991 24.71177307 -21.3125 17.75 C-21.34988281 16.44546875 -21.38726562 15.1409375 -21.42578125 13.796875 C-20.8078754 8.2867421 -18.42756851 5.32311228 -14.4375 1.625 C-9.57038192 -0.67581945 -5.29437994 -0.78113802 0 0 Z " fill="#CECECE" transform="translate(462,296)"/>
<path d="M0 0 C2.990625 -0.0825 5.98125 -0.165 9.0625 -0.25 C9.99070557 -0.28641602 10.91891113 -0.32283203 11.87524414 -0.36035156 C17.79191724 -0.43874321 21.19358844 0.4942926 26 4 C29.90745471 8.48524877 30.59063224 13.89934351 30.31640625 19.67578125 C29.64873296 24.58029492 27.64031606 27.62495957 24 30.8125 C20.42359453 33.42029566 18.0783428 34.1282152 13.76953125 34.09765625 C12.68442261 34.09390991 12.68442261 34.09390991 11.57739258 34.09008789 C10.20877075 34.07643188 10.20877075 34.07643188 8.8125 34.0625 C5.904375 34.041875 2.99625 34.02125 0 34 C0 22.78 0 11.56 0 0 Z " fill="#D0D0D0" transform="translate(504,297)"/>
<path d="M0 0 C2.31 0 4.62 0 7 0 C7 11.55 7 23.1 7 35 C-1 35 -1 35 -3.19335938 32.88867188 C-3.73798828 31.92509766 -4.28261719 30.96152344 -4.84375 29.96875 C-5.44960938 28.93105469 -6.05546875 27.89335937 -6.6796875 26.82421875 C-7.28039062 25.72722656 -7.88109375 24.63023437 -8.5 23.5 C-9.13164062 22.40300781 -9.76328125 21.30601562 -10.4140625 20.17578125 C-11.96942506 17.46567982 -13.48827955 14.7346853 -15 12 C-15.33 19.59 -15.66 27.18 -16 35 C-17.98 35 -19.96 35 -22 35 C-22 23.78 -22 12.56 -22 1 C-14 1 -14 1 -12.11376953 2.51293945 C-11.70755371 3.20605225 -11.30133789 3.89916504 -10.8828125 4.61328125 C-10.42132813 5.36673828 -9.95984375 6.12019531 -9.484375 6.89648438 C-9.03578125 7.69376953 -8.5871875 8.49105469 -8.125 9.3125 C-7.65320313 10.09818359 -7.18140625 10.88386719 -6.6953125 11.69335938 C-5.82018727 13.15397322 -4.95696363 14.62183329 -4.10986328 16.09887695 C-3.13438266 17.76981131 -2.07325301 19.39012048 -1 21 C-0.67 14.07 -0.34 7.14 0 0 Z " fill="#D1D1D1" transform="translate(403,296)"/>
<path d="M0 0 C7.92 0 15.84 0 24 0 C24 2.31 24 4.62 24 7 C18.72 7 13.44 7 8 7 C8 9.31 8 11.62 8 14 C12.29 14 16.58 14 21 14 C21 15.98 21 17.96 21 20 C16.38 20 11.76 20 7 20 C7 22.97 7 25.94 7 29 C12.61 29 18.22 29 24 29 C24 30.98 24 32.96 24 35 C16.08 35 8.16 35 0 35 C0 23.45 0 11.9 0 0 Z " fill="#C5C5C5" transform="translate(564,296)"/>
<path d="M0 0 C3.09231059 0.70036977 4.18066513 1.90948378 6.03515625 4.4609375 C6.56640625 7.9921875 6.56640625 7.9921875 6.53515625 11.9609375 C6.54546875 13.270625 6.55578125 14.5803125 6.56640625 15.9296875 C6.03515625 19.4609375 6.03515625 19.4609375 4.28515625 21.89453125 C1.10261974 24.11015128 -1.05539338 24.10470729 -4.8359375 23.88671875 C-6.96484375 23.4609375 -6.96484375 23.4609375 -9.52734375 21.7109375 C-11.89412448 16.35995497 -12.1930542 9.76103568 -10.12890625 4.21484375 C-7.49478515 0.24598344 -4.44444086 0.18839634 0 0 Z " fill="#080808" transform="translate(458.96484375,301.5390625)"/>
<path d="M0 0 C10 0 10 0 13.125 1.8125 C15.88178286 6.49903086 15.74135957 10.69090887 15 16 C13.6875 19.125 13.6875 19.125 12 21 C9 22 9 22 0 22 C0 14.74 0 7.48 0 0 Z " fill="#050505" transform="translate(511,303)"/>
</svg>
